<svg width="100" height="100" viewBox="0 0 100 100" xmlns="http://www.w3.org/2000/svg">
  <defs>
    <linearGradient id="islamicGold" x1="0%" y1="0%" x2="100%" y2="100%">
      <stop offset="0%" style="stop-color:#E8C466;stop-opacity:1" />
      <stop offset="100%" style="stop-color:#B8941F;stop-opacity:1" />
    </linearGradient>
    <filter id="glow">
      <feGaussianBlur stdDeviation="3" result="coloredBlur"/>
      <feMerge> 
        <feMergeNode in="coloredBlur"/>
        <feMergeNode in="SourceGraphic"/>
      </feMerge>
    </filter>
  </defs>
  
  <!-- Background circle -->
  <circle cx="50" cy="50" r="45" fill="url(#islamicGold)" filter="url(#glow)"/>
  
  <!-- Islamic star pattern -->
  <g fill="white" opacity="0.9">
    <!-- 8-pointed star -->
    <path d="M50 15 L55 35 L75 30 L60 45 L80 50 L60 55 L75 70 L55 65 L50 85 L45 65 L25 70 L40 55 L20 50 L40 45 L25 30 L45 35 Z"/>
  </g>
  
  <!-- Central geometric pattern -->
  <g fill="white" opacity="0.8">
    <circle cx="50" cy="50" r="8"/>
    <circle cx="50" cy="50" r="4" fill="url(#islamicGold)"/>
  </g>
  
  <!-- Arabic calligraphy style decoration -->
  <g stroke="white" stroke-width="2" fill="none" opacity="0.6">
    <path d="M35 50 Q45 40 55 50 Q65 60 75 50"/>
    <path d="M25 50 Q35 60 45 50 Q55 40 65 50"/>
  </g>
</svg>